<svg xmlns="http://www.w3.org/2000/svg" viewBox="0 0 256 256" fill="none">
  <defs>
    <linearGradient id="bg-icon" x1="0" y1="0" x2="256" y2="256" gradientUnits="userSpaceOnUse">
      <stop offset="0%" stop-color="#0B223D"/>
      <stop offset="100%" stop-color="#071A2F"/>
    </linearGradient>
    <linearGradient id="stem-icon" x1="40" y1="40" x2="160" y2="200" gradientUnits="userSpaceOnUse">
      <stop offset="0%" stop-color="#FFFFFF"/>
      <stop offset="50%" stop-color="#E2E8F0"/>
      <stop offset="100%" stop-color="#94A3B8"/>
    </linearGradient>
    <linearGradient id="gold-icon" x1="80" y1="60" x2="220" y2="200" gradientUnits="userSpaceOnUse">
      <stop offset="0%" stop-color="#FFDE59"/>
      <stop offset="40%" stop-color="#FFC928"/>
      <stop offset="100%" stop-color="#D9A514"/>
    </linearGradient>
  </defs>
  <!-- Squircle rounded background -->
  <rect width="256" height="256" rx="58" fill="url(#bg-icon)"/>
  <rect x="1" y="1" width="254" height="254" rx="57" stroke="rgba(255,255,255,0.12)" stroke-width="2"/>
  <!-- Symbol scaled and centered inside -->
  <g transform="translate(38, 38) scale(1.5)">
    <path d="M6 46H26L22 52H2L6 46Z" fill="#FFC928"/>
    <path d="M12 60H34L30 66H8L12 60Z" fill="#FFC928"/>
    <path d="M18 74H38L34 80H14L18 74Z" fill="#D9A514"/>
    <path d="M32 24H86L80 36H56L36 94H20L40 36H26L32 24Z" fill="url(#stem-icon)"/>
    <path d="M52 46H74L63 76C61 82 66 88 73 88H88L82 72L108 58L104 90L92 84C89 96 76 102 65 100C49 98 44 84 48 72L52 60C44 64 38 72 38 78H26C26 66 36 52 52 46Z" fill="url(#gold-icon)"/>
    <path d="M80 34L108 30L98 58L88 48L80 34Z" fill="url(#gold-icon)"/>
  </g>
</svg>
